<?xml version="1.0" encoding="UTF-8"?>
<!DOCTYPE svg PUBLIC "-//W3C//DTD SVG 1.1//EN" "http://www.w3.org/Graphics/SVG/1.1/DTD/svg11.dtd">
<svg xmlns="http://www.w3.org/2000/svg" version="1.1" width="1920px" height="436px" style="shape-rendering:geometricPrecision; text-rendering:geometricPrecision; image-rendering:optimizeQuality; fill-rule:evenodd; clip-rule:evenodd" xmlns:xlink="http://www.w3.org/1999/xlink">
<g><path style="opacity:0.991" fill="#eb2126" d="M 38.5,36.5 C 112.167,36.5 185.833,36.5 259.5,36.5C 256.058,58.1511 252.725,79.8178 249.5,101.5C 199.5,101.5 149.5,101.5 99.5,101.5C 99.3333,148.835 99.5,196.168 100,243.5C 102.542,250.862 107.708,255.028 115.5,256C 144.498,256.5 173.498,256.667 202.5,256.5C 202.5,240.833 202.5,225.167 202.5,209.5C 185.923,209.825 169.423,209.492 153,208.5C 152.5,188.503 152.333,168.503 152.5,148.5C 190.5,148.5 228.5,148.5 266.5,148.5C 266.5,211.5 266.5,274.5 266.5,337.5C 245.519,341.296 224.519,344.963 203.5,348.5C 203.667,332.83 203.5,317.163 203,301.5C 196.802,308.032 190.302,314.199 183.5,320C 151.167,320.667 118.833,320.667 86.5,320C 60.3317,315.498 44.165,300.332 38,274.5C 36.4574,267.578 35.4574,260.578 35,253.5C 34.1667,208.163 34.3334,162.83 35.5,117.5C 45.8333,112.333 56.1667,107.167 66.5,102C 49.6822,101.986 33.0155,101.319 16.5,100C 23.7384,78.7841 31.0718,57.6175 38.5,36.5 Z"/></g>
<g><path style="opacity:0.921" fill="#000000" d="M 807.5,131.5 C 816.839,131.334 826.173,131.5 835.5,132C 839,132.833 841.167,135 842,138.5C 842.667,186.833 842.667,235.167 842,283.5C 841.654,285.848 840.487,287.681 838.5,289C 828.833,289.667 819.167,289.667 809.5,289C 807.662,286.114 805.828,283.281 804,280.5C 784.223,294.313 763.723,295.146 742.5,283C 723.825,269.821 714.492,251.654 714.5,228.5C 715.565,196.151 731.565,175.651 762.5,167C 773.439,165.604 784.106,166.604 794.5,170C 797,171.833 799.5,173.667 802,175.5C 802.333,163.5 802.667,151.5 803,139.5C 803.451,136.222 804.951,133.556 807.5,131.5 Z M 774.5,199.5 C 796.423,201.587 806.59,213.587 805,235.5C 797.443,255.695 783.609,261.861 763.5,254C 750.527,241.796 748.027,227.63 756,211.5C 760.668,205.089 766.835,201.089 774.5,199.5 Z"/></g>
<g><path style="opacity:0.919" fill="#000000" d="M 282.5,147.5 C 294.838,147.333 307.171,147.5 319.5,148C 320.333,148.833 321.167,149.667 322,150.5C 331.531,178.093 340.864,205.759 350,233.5C 358.333,206.5 366.667,179.5 375,152.5C 375.785,150.714 376.951,149.214 378.5,148C 391.167,147.333 403.833,147.333 416.5,148C 417.293,149.085 417.96,150.252 418.5,151.5C 413.029,167.914 407.362,184.247 401.5,200.5C 404.899,211.198 408.399,221.865 412,232.5C 422.323,204.867 432.657,177.2 443,149.5C 443.5,149 444,148.5 444.5,148C 456.833,147.333 469.167,147.333 481.5,148C 483.837,150.593 484.004,153.426 482,156.5C 464.667,199.833 447.333,243.167 430,286.5C 429.167,287.333 428.333,288.167 427.5,289C 417.167,289.667 406.833,289.667 396.5,289C 390.946,276.717 385.779,264.217 381,251.5C 377,262.167 373,272.833 369,283.5C 368.208,285.587 367.041,287.421 365.5,289C 355.167,289.667 344.833,289.667 334.5,289C 332.288,286.079 330.455,282.912 329,279.5C 313.111,236.723 296.944,194.057 280.5,151.5C 281.18,150.14 281.847,148.807 282.5,147.5 Z"/></g>
<g><path style="opacity:0.912" fill="#000000" d="M 899.5,165.5 C 915.995,163.502 930.662,167.668 943.5,178C 946.612,180.439 948.945,183.439 950.5,187C 950.138,188.225 949.638,189.391 949,190.5C 943.5,195.333 938,200.167 932.5,205C 930.167,205.667 927.833,205.667 925.5,205C 919.275,197.523 911.609,195.356 902.5,198.5C 899.717,202.009 900.384,204.843 904.5,207C 918.566,209.87 931.566,215.204 943.5,223C 954.591,234.428 958.091,247.928 954,263.5C 949.924,275.243 942.091,283.41 930.5,288C 909.174,295.482 888.84,293.482 869.5,282C 866.333,278.833 863.167,275.667 860,272.5C 858,268.833 858,265.167 860,261.5C 864.532,256.633 869.366,252.133 874.5,248C 879.841,247.499 884.174,249.499 887.5,254C 894.453,258.985 902.119,260.652 910.5,259C 916.382,256.912 917.716,253.246 914.5,248C 905.278,244.361 895.944,241.028 886.5,238C 865.969,227.431 858.802,210.931 865,188.5C 872.372,174.625 883.872,166.959 899.5,165.5 Z"/></g>
<g><path style="opacity:0.923" fill="#000000" d="M 521.5,166.5 C 547.523,162.998 568.689,171.332 585,191.5C 599.152,214.244 600.152,237.577 588,261.5C 567.663,289.968 540.829,298.468 507.5,287C 478.527,271.888 466.36,248.055 471,215.5C 477.578,188.483 494.412,172.15 521.5,166.5 Z M 531.5,199.5 C 546.607,201.105 555.44,209.438 558,224.5C 559.696,239.954 553.529,250.788 539.5,257C 522.908,259.393 512.408,252.56 508,236.5C 505.098,222.56 509.264,211.393 520.5,203C 524.161,201.407 527.828,200.241 531.5,199.5 Z"/></g>
<g><path style="opacity:0.929" fill="#000000" d="M 664.5,166.5 C 676.297,164.86 687.297,167.027 697.5,173C 700.58,175.29 703.747,177.457 707,179.5C 708.457,182.366 708.79,185.366 708,188.5C 704.228,195.268 700.061,201.768 695.5,208C 692.833,208.667 690.167,208.667 687.5,208C 673.165,195.459 660.999,197.292 651,213.5C 650.667,237.5 650.333,261.5 650,285.5C 648.934,288.563 646.767,290.063 643.5,290C 634.438,290.881 625.438,290.548 616.5,289C 614.667,288.5 613.5,287.333 613,285.5C 612.333,247.833 612.333,210.167 613,172.5C 613.5,170.667 614.667,169.5 616.5,169C 622.776,167.576 629.109,167.242 635.5,168C 637.676,168.163 639.509,168.996 641,170.5C 642.599,173.801 644.099,177.135 645.5,180.5C 651.047,174.58 657.38,169.914 664.5,166.5 Z"/></g>
</svg>
